<svg xmlns="http://www.w3.org/2000/svg" width="128" height="128" viewBox="0 0 128 128"><circle cx="64" cy="64" r="58" fill="#F4CD3C" stroke="#202622" stroke-width="7"/><path d="M52 92 L40 70 c-3 -6 5 -11 9 -5 l6 9 V38 c0 -8 12 -8 12 0 v26 c0 -7 12 -7 12 0 v4 c0 -6 11 -6 11 0 v6 c0 -5 10 -5 10 0 v16 c0 14 -10 22 -24 22 h-14 c-6 0 -10 -3 -12 -8 Z" fill="#F7F0DE" stroke="#202622" stroke-width="6" stroke-linejoin="round"/><path d="M28 44 l-8 -4 M30 34 l-6 -7 M38 28 l-3 -9" fill="none" stroke="#202622" stroke-width="5" stroke-linecap="round"/></svg>
